<svg width="28" height="32" viewBox="0 0 28 32" fill="none" xmlns="http://www.w3.org/2000/svg">
<g clip-path="url(#clip0_206_753)">
<path d="M13.7972 31.2585C27.0036 30.7975 27.6553 23.7596 27.6553 23.7596V5.89284C27.6553 5.65676 27.5244 5.44013 27.3127 5.32903L17.2757 0.0742618C16.8496 -0.147927 16.3399 0.16036 16.3399 0.638067V23.904C16.3399 26.0982 15.471 28.2034 13.9253 29.7643L13.3795 30.3142C13.023 30.6697 13.2931 31.2779 13.7972 31.2585Z" fill="#0C0B0B"/>
<path d="M4.95218 27.7153C4.95218 27.7153 -0.00229553 27.7153 0.000489455 22.3439V5.84357C0.000489455 5.35476 0.529636 5.04925 0.955738 5.29088L11.4189 11.265C11.6166 11.3789 11.7392 11.5899 11.7392 11.8177L11.6974 21.4163C11.689 23.702 10.3634 27.6042 6.14972 27.7153H4.95218Z" fill="#0C0B0B"/>
</g>
<defs>
<clipPath id="clip0_206_753">
<rect width="27.6549" height="31.262" fill="white"/>
</clipPath>
</defs>
</svg>
